# xmcd
# 
# Track frame offsets:
#     150
#     9291
#     21731
#     31947
#     43325
#     51834
#     65587
#     75759
#     88206
#     99689
#     110936
#     123721
#     138076
#     146739
#     158017
#     170540
#     183227
#     193617
#     203638
#     216008
#     229002
#     241087
#     254781
#     269403
#     279074
# 
# Disc length: 3863
# 
# Revision: 2
# Processed by: cddbd v1.5.2PL0 Copyright (c) Steve Scherf et al.
# Submitted via: fre:ac v1.0.17
# 
DISCID=680f1519
DTITLE=Dean Martin  - The Rat Pack Disc 4
DYEAR=2011
DGENRE=Ballad
TTITLE0=Everybody loves somebody
TTITLE1=How d´ya like your eggs in the Morning
TTITLE2=Who´s sorry now
TTITLE3=Dreamy Old New England Moon
TTITLE4=I don´t care if the Sun don´t shine
TTITLE5=Bye bye Blackbird
TTITLE6=Carolina in the Morning
TTITLE7=Bella Bimba
TTITLE8=I´ll always love you
TTITLE9=I´m gonna steal you away
TTITLE10=Solitaire
TTITLE11=I´m gonna paper my walls with your old Love Letters
TTITLE12=Night train to Memphis
TTITLE13=Pretty as a picture
TTITLE14=We never talk much, we just sit around
TTITLE15=Only trust your heart
TTITLE16=Beau James
TTITLE17=Good Mornin´ life
TTITLE18=It´s 1200 miles from Palm Spring to Texas
TTITLE19=Relax ay voo
TTITLE20=Pennies from heaven
TTITLE21=Muskrat Ramble
TTITLE22=Just one more chance
TTITLE23=Aw c´mon
TTITLE24=Every street´s a Boulevard in New York
EXTD=
EXTT0=
EXTT1=
EXTT2=
EXTT3=
EXTT4=
EXTT5=
EXTT6=
EXTT7=
EXTT8=
EXTT9=
EXTT10=
EXTT11=
EXTT12=
EXTT13=
EXTT14=
EXTT15=
EXTT16=
EXTT17=
EXTT18=
EXTT19=
EXTT20=
EXTT21=
EXTT22=
EXTT23=
EXTT24=
PLAYORDER=
